<svg xmlns="http://www.w3.org/2000/svg" viewBox="0 0 30 30"><path d="M25.643 4.35C22.74 1.45 19.185 0 14.981 0 10.825 0 7.309 1.449 4.43 4.35 1.475 7.35 0 10.9 0 15c0 4.1 1.476 7.625 4.43 10.574C7.384 28.525 10.9 30 14.98 30c4.13 0 7.71-1.488 10.738-4.463C28.573 22.712 30 19.2 30 15c0-4.2-1.453-7.751-4.357-10.65zm-1.878 19.237c-2.478 2.45-5.394 3.674-8.747 3.674-3.354 0-6.246-1.213-8.673-3.638-2.428-2.425-3.643-5.3-3.643-8.624 0-1.406.223-2.736.661-3.989l3.975 1.76H7.05v1.783h1.407c0 .252-.025.503-.025.754v.427H7.05v1.783h1.632c.227 1.331.729 2.411 1.406 3.265 1.407 1.858 3.667 2.862 6.127 2.862 1.608 0 3.063-.477 3.918-.955l-.604-2.786c-.527.276-1.706.652-2.86.652-1.257 0-2.436-.376-3.24-1.28-.377-.427-.653-1.005-.829-1.758h5.46l7.757 3.434a11.534 11.534 0 01-2.053 2.636zm-9.756-7.853l-.032-.026.056.026h-.024zm4.671-1.182h.225V12.77h-4.252l-1.727-.764c.148-.335.325-.634.53-.868.779-.955 1.883-1.357 3.088-1.357 1.105 0 2.135.327 2.787.603l.703-2.863c-.904-.401-2.235-.753-3.766-.753-2.36 0-4.37.954-5.8 2.561a7.698 7.698 0 00-.844 1.215L4.69 8.36a13.825 13.825 0 011.692-2.062c2.353-2.4 5.23-3.6 8.636-3.6 3.403 0 6.295 1.2 8.673 3.6 2.401 2.375 3.603 5.274 3.603 8.701 0 1.128-.128 2.193-.38 3.197l-8.235-3.645z" fill="currentColor"/></svg>
