<svg viewBox="0 0 30 30" xmlns="http://www.w3.org/2000/svg"><path fill-rule="evenodd" clip-rule="evenodd" d="M21.755 3.93c-2.581-.368-4.81.582-6.718 2.672l-.015.017-.022.024-.029-.032-.007-.009c-1.909-2.09-4.137-3.04-6.718-2.672-2.663.38-4.931 2.306-5.737 4.902-.62 1.997-.363 4.234.467 6.274C4.27 18.279 8.086 22.788 15 25.94c6.914-3.153 10.732-7.663 12.024-10.835.83-2.04 1.088-4.277.468-6.274-.806-2.596-3.074-4.522-5.738-4.902zM1.297 6.165C4.3 1.193 10.832.33 15 3.638 19.168.33 25.7 1.193 28.704 6.165c.997 1.651 1.372 3.57 1.284 5.476-.153 3.306-1.564 6.195-3.636 8.689-2.79 3.356-6.846 5.995-11.263 7.964l-.089.04a9.814 9.814 0 00-.08-.036l-.008-.004c-4.44-1.969-8.473-4.607-11.264-7.964C1.576 17.836.165 14.947.013 11.64c-.088-1.905.286-3.825 1.284-5.476zm11.685 8.054l1.897.95c-.35.833-1.226 1.604-2.014 2.004-1.019.516-2.216.573-3.316.33-2.255-.5-3.305-2.41-3.345-4.623-.038-2.164 1.055-4.17 3.212-4.754 2.027-.55 4.418.12 5.438 2.09l-2.071 1.074c-.238-.56-.682-1.182-1.725-1.236-1.631-.085-2.11 1.51-2.053 2.892.042 1.012.364 2.218 1.452 2.52 1.386.383 1.865-.275 2.525-1.247zm8.944 0l1.897.95c-.35.833-1.226 1.604-2.014 2.004-1.019.516-2.216.573-3.316.33-2.255-.5-3.305-2.41-3.345-4.623-.038-2.164 1.055-4.17 3.212-4.754 2.027-.55 4.418.12 5.438 2.09l-2.071 1.074c-.238-.56-.682-1.182-1.725-1.236-1.631-.085-2.11 1.51-2.053 2.892.042 1.012.364 2.218 1.452 2.52 1.386.383 1.866-.275 2.525-1.247z" fill="currentColor"/></svg>
