<svg width="30" height="30" viewBox="0 0 30 30" fill="none" xmlns="http://www.w3.org/2000/svg">
<path d="M15.0642 28.3978C22.3844 28.3978 28.3186 22.4636 28.3186 15.1434C28.3186 7.82325 22.3844 1.88907 15.0642 1.88907C7.74404 1.88907 1.80985 7.82325 1.80985 15.1434C1.80985 22.4636 7.74404 28.3978 15.0642 28.3978Z" fill="black"/>
<path d="M14.9733 0C19.1864 0 22.7405 1.44609 25.6336 4.33922C28.5436 7.25016 30 10.8038 30 15C30 19.2145 28.5708 22.7231 25.7133 25.5263C22.6777 28.5089 19.0978 30 14.9733 30C10.9191 30 7.40156 28.5262 4.41984 25.5797C1.47375 22.6331 0 19.1072 0 15C0 10.8933 1.47375 7.33969 4.41984 4.33969C7.31297 1.44609 10.83 0 14.9733 0ZM15.0267 2.70563C11.6161 2.70563 8.73234 3.90234 6.375 6.29484C3.92813 8.79516 2.70516 11.6972 2.70516 15.0005C2.70516 18.322 3.91922 21.1973 6.34734 23.6245C8.77594 26.0536 11.6686 27.2672 15.0258 27.2672C18.3647 27.2672 21.2761 26.0452 23.7581 23.5978C26.1155 21.33 27.2939 18.4641 27.2939 14.9995C27.2939 11.5889 26.0972 8.68781 23.7052 6.29438C21.3127 3.90188 18.4195 2.70563 15.0267 2.70563ZM19.0448 11.2767V17.4103H17.3311V24.6956H12.6698V17.4108H10.9561V11.2767C10.9561 11.0086 11.0498 10.7812 11.2369 10.5938C11.4248 10.4067 11.6527 10.3125 11.9198 10.3125H18.0811C18.3309 10.3125 18.5545 10.4062 18.7505 10.5938C18.9459 10.7812 19.0448 11.0091 19.0448 11.2767ZM12.9103 7.41984C12.9103 6.00984 13.6064 5.30391 15 5.30391C16.3936 5.30391 17.0892 6.00891 17.0892 7.41984C17.0892 8.8125 16.3927 9.50906 15 9.50906C13.6073 9.50906 12.9103 8.8125 12.9103 7.41984Z" fill="white"/>
</svg>
