<svg viewBox="0 0 30 30" xmlns="http://www.w3.org/2000/svg" width="100%">
<!-- The spritesheet selectively includes assets from Font Awesome Icons | https://fontawesome.com/ -->

<defs>
    <style>
        g {
            display: none;
        }
        g:target {
            display: inline;
        }
    </style>
</defs>


<!-- general use -->

<g id="fa-angle-down">
    <!--! Font Awesome Free 5.11.0 by @fontawesome - https://fontawesome.com License - https://fontawesome.com/license/free (Icons: CC BY 4.0, Fonts: SIL OFL 1.1, Code: MIT License) Copyright 2023 Fonticons, Inc. -->
    <path d="M14.004 20.643l-7.969-7.97a1.4 1.4 0 010-1.986L7.36 9.364a1.4 1.4 0 011.987 0l5.648 5.649 5.649-5.649a1.4 1.4 0 011.986 0l1.324 1.325a1.4 1.4 0 010 1.986l-7.969 7.969c-.539.55-1.43.55-1.98 0z" fill="currentColor"/>
</g>

<g id="fa-angle-left">
    <!--! Font Awesome Free 5.11.0 by @fontawesome - https://fontawesome.com License - https://fontawesome.com/license/free (Icons: CC BY 4.0, Fonts: SIL OFL 1.1, Code: MIT License) Copyright 2023 Fonticons, Inc. -->
    <path d="M9.377 14.007l7.969-7.969a1.4 1.4 0 011.986 0l1.325 1.324a1.4 1.4 0 010 1.987l-5.643 5.654 5.648 5.648a1.4 1.4 0 010 1.987l-1.324 1.33a1.4 1.4 0 01-1.986 0l-7.969-7.969a1.402 1.402 0 01-.006-1.992z" fill="currentColor"/>
</g>

<g id="fa-angle-right">
    <!--! Font Awesome Free 5.11.0 by @fontawesome - https://fontawesome.com License - https://fontawesome.com/license/free (Icons: CC BY 4.0, Fonts: SIL OFL 1.1, Code: MIT License) Copyright 2023 Fonticons, Inc. -->
    <path d="M20.657 15.999l-7.969 7.969a1.4 1.4 0 01-1.986 0l-1.324-1.324a1.4 1.4 0 010-1.987l5.648-5.648L9.378 9.36a1.4 1.4 0 010-1.986l1.318-1.336a1.4 1.4 0 011.987 0l7.968 7.969c.557.55.557 1.441.006 1.992z" fill="currentColor"/>
</g>

<g id="fa-angle-up">
    <!--! Font Awesome Free 5.11.0 by @fontawesome - https://fontawesome.com License - https://fontawesome.com/license/free (Icons: CC BY 4.0, Fonts: SIL OFL 1.1, Code: MIT License) Copyright 2023 Fonticons, Inc. -->
    <path d="M15.996 9.357l7.969 7.97a1.4 1.4 0 010 1.985l-1.324 1.325a1.4 1.4 0 01-1.987 0L15 14.994l-5.648 5.649a1.4 1.4 0 01-1.987 0l-1.33-1.325a1.4 1.4 0 010-1.986l7.969-7.969a1.402 1.402 0 011.992-.006z" fill="currentColor"/>
</g>

<g id="fa-globe">
    <path d="M20.186 9.375C19.335 4.143 17.332.469 15 .469s-4.336 3.674-5.186 8.906h10.372zM9.375 15c0 1.3.07 2.549.193 3.75h10.858a36.74 36.74 0 00.193-3.75c0-1.3-.07-2.549-.193-3.75H9.568A36.725 36.725 0 009.375 15zM28.4 9.375a14.562 14.562 0 00-9.257-8.297c1.43 1.98 2.414 4.963 2.93 8.297H28.4zM10.852 1.078A14.552 14.552 0 001.6 9.375h6.328c.51-3.334 1.494-6.316 2.924-8.297zM29.027 11.25h-6.72c.123 1.23.193 2.49.193 3.75 0 1.26-.07 2.52-.193 3.75h6.715c.322-1.201.503-2.45.503-3.75 0-1.3-.181-2.549-.498-3.75zM7.5 15c0-1.26.07-2.52.193-3.75H.973A14.66 14.66 0 00.469 15c0 1.3.187 2.549.504 3.75h6.715A39.675 39.675 0 017.5 15zm2.314 5.625c.85 5.232 2.854 8.906 5.186 8.906s4.336-3.674 5.186-8.906H9.814zm9.334 8.297a14.576 14.576 0 009.258-8.297h-6.328c-.515 3.334-1.5 6.316-2.93 8.297zM1.6 20.625a14.562 14.562 0 009.257 8.297c-1.43-1.98-2.414-4.963-2.93-8.297H1.6z" fill="currentColor"/>
</g>

<g id="fa-heart">
    <path d="M27.088 3.668c-3.211-2.736-7.986-2.244-10.934.797L15 5.655l-1.154-1.19C10.904 1.424 6.123.932 2.912 3.668c-3.68 3.14-3.873 8.777-.58 12.182L13.67 27.557a1.837 1.837 0 002.654 0L27.662 15.85c3.299-3.405 3.106-9.041-.574-12.182z" fill="currentColor"/>
</g>

<g id="fa-info">
    <path d="M15 .469C6.975.469.469 6.978.469 15c0 8.027 6.506 14.531 14.531 14.531S29.531 23.027 29.531 15C29.531 6.978 23.025.469 15 .469zm0 6.445a2.46 2.46 0 110 4.922 2.46 2.46 0 010-4.922zm3.281 14.883a.703.703 0 01-.703.703h-5.156a.703.703 0 01-.703-.703V20.39c0-.389.315-.703.703-.703h.703v-3.75h-.703a.703.703 0 01-.703-.704v-1.406c0-.388.315-.703.703-.703h3.75c.388 0 .703.315.703.703v5.86h.703c.388 0 .703.314.703.703v1.406z" fill="currentColor"/>
</g>

<g id="fa-right-angle">
    <!--! Font Awesome Free 5.11.0 by @fontawesome - https://fontawesome.com License - https://fontawesome.com/license/free (Icons: CC BY 4.0, Fonts: SIL OFL 1.1, Code: MIT License) Copyright 2023 Fonticons, Inc. -->
    <path d="M20.657 15.999l-7.969 7.969a1.4 1.4 0 01-1.986 0l-1.324-1.324a1.4 1.4 0 010-1.987l5.648-5.648L9.378 9.36a1.4 1.4 0 010-1.986l1.318-1.336a1.4 1.4 0 011.987 0l7.968 7.969c.557.55.557 1.441.006 1.992z" fill="currentColor"/>
</g>

<g id="fa-search">
    <path d="M29.59 25.94l-5.842-5.842a1.405 1.405 0 00-.996-.41h-.955a12.128 12.128 0 002.578-7.5C24.375 5.455 18.92 0 12.187 0 5.455 0 0 5.455 0 12.188c0 6.732 5.455 12.187 12.188 12.187 2.83 0 5.431-.96 7.5-2.578v.955c0 .375.146.732.41.996l5.841 5.842a1.4 1.4 0 001.987 0l1.658-1.658c.55-.551.55-1.442.006-1.992zm-17.402-6.253a7.496 7.496 0 01-7.5-7.5c0-4.142 3.351-7.5 7.5-7.5 4.142 0 7.5 3.352 7.5 7.5 0 4.143-3.352 7.5-7.5 7.5z" fill="currentColor"/>
</g>

<g id="fa-close">
    <!--!Font Awesome Free 6.6.0 by @fontawesome - https://fontawesome.com License - https://fontawesome.com/license/free Copyright 2024 Fonticons, Inc.-->
    <path d="M4.3 4.3c.4-.4 1-.4 1.4 0L15 13.6l9.3-9.3c.4-.4 1-.4 1.4 0 .4.4.4 1 0 1.4L16.4 15l9.3 9.3c.4.4.4 1 0 1.4-.4.4-1 .4-1.4 0L15 16.4l-9.3 9.3c-.4.4-1 .4-1.4 0-.4-.4-.4-1 0-1.4L13.6 15 4.3 5.7c-.4-.4-.4-1 0-1.4z" fill="currentColor"/>
</g>


<!-- social media -->

<g id="fa-bluesky">
        <!--! Font Awesome Free 6.6.0 by @fontawesome - https://fontawesome.com License - https://fontawesome.com/license/free (Icons: CC BY 4.0, Fonts: SIL OFL 1.1, Code: MIT License) Copyright 2023 Fonticons, Inc. -->
    <path d="M21.2396 17.3501C21.0677 17.3293 20.8906 17.3084 20.7187 17.2824C20.8958 17.3032 21.0677 17.3293 21.2396 17.3501ZM15 13.8293C13.6406 11.1886 9.94271 6.26677 6.50521 3.83969C3.20833 1.51156 1.95312 1.9126 1.125 2.2876C0.171875 2.7199 0 4.18344 0 5.04281C0 5.90219 0.473958 12.1053 0.78125 13.1418C1.79687 16.5636 5.42187 17.7199 8.76042 17.3449C8.93229 17.3189 9.10417 17.298 9.28125 17.272C9.10937 17.298 8.9375 17.3241 8.76042 17.3449C3.86979 18.0741 -0.473958 19.8553 5.22396 26.1939C11.4896 32.6834 13.8073 24.8032 15 20.8084C16.1927 24.8032 17.5625 32.397 24.6667 26.1939C30 20.8084 26.1302 18.0689 21.2396 17.3449C21.0677 17.3241 20.8906 17.3032 20.7187 17.2772C20.8958 17.298 21.0677 17.3241 21.2396 17.3449C24.5781 17.7147 28.1979 16.5584 29.2187 13.1418C29.526 12.1053 30 5.9074 30 5.04281C30 4.17823 29.8281 2.71469 28.875 2.2876C28.0521 1.91781 26.7917 1.51156 23.5 3.83969C20.0573 6.26677 16.3594 11.1886 15 13.8293Z" fill="black"/>
</g>

<g id="fa-facebook">
    <!--! Font Awesome Free 6.3.0 by @fontawesome - https://fontawesome.com License - https://fontawesome.com/license/free (Icons: CC BY 4.0, Fonts: SIL OFL 1.1, Code: MIT License) Copyright 2023 Fonticons, Inc. -->
   <path d="M30 15C30 6.71371 23.2863 0 15 0C6.71371 0 0 6.71371 0 15C0 22.4867 5.48528 28.6923 12.6562 29.8185V19.3361H8.84577V15H12.6562V11.6952C12.6562 7.93609 14.8942 5.85968 18.3218 5.85968C19.9633 5.85968 21.6798 6.15242 21.6798 6.15242V9.84194H19.7879C17.925 9.84194 17.3437 10.9984 17.3437 12.1845V15H21.5038L20.8385 19.3361H17.3437V29.8185C24.5147 28.6923 30 22.4867 30 15Z" fill="currentColor"/>
</g>

<g id="fa-instagram">
    <!--! Font Awesome Free 6.3.0 by @fontawesome - https://fontawesome.com License - https://fontawesome.com/license/free (Icons: CC BY 4.0, Fonts: SIL OFL 1.1, Code: MIT License) Copyright 2023 Fonticons, Inc. -->
    <path d="M15.9283 8.13176C11.6718 8.13176 8.23843 11.5651 8.23843 15.8217C8.23843 20.0782 11.6718 23.5116 15.9283 23.5116C20.1849 23.5116 23.6182 20.0782 23.6182 15.8217C23.6182 11.5651 20.1849 8.13176 15.9283 8.13176ZM15.9283 20.8211C13.1776 20.8211 10.9289 18.5791 10.9289 15.8217C10.9289 13.0643 13.1709 10.8222 15.9283 10.8222C18.6857 10.8222 20.9278 13.0643 20.9278 15.8217C20.9278 18.5791 18.679 20.8211 15.9283 20.8211ZM25.7264 7.8172C25.7264 8.81442 24.9233 9.61085 23.9328 9.61085C22.9356 9.61085 22.1392 8.80772 22.1392 7.8172C22.1392 6.82669 22.9423 6.02356 23.9328 6.02356C24.9233 6.02356 25.7264 6.82669 25.7264 7.8172ZM30.8196 9.63762C30.7058 7.23494 30.157 5.10666 28.3968 3.35318C26.6433 1.59969 24.5151 1.05089 22.1124 0.930422C19.6361 0.789876 12.2139 0.789876 9.73759 0.930422C7.34161 1.0442 5.21333 1.593 3.45315 3.34648C1.69297 5.09997 1.15087 7.22825 1.0304 9.63092C0.889851 12.1072 0.889851 19.5294 1.0304 22.0057C1.14417 24.4084 1.69297 26.5367 3.45315 28.2902C5.21333 30.0436 7.33492 30.5924 9.73759 30.7129C12.2139 30.8535 19.6361 30.8535 22.1124 30.7129C24.5151 30.5991 26.6433 30.0503 28.3968 28.2902C30.1503 26.5367 30.6991 24.4084 30.8196 22.0057C30.9601 19.5294 30.9601 12.1139 30.8196 9.63762ZM27.6205 24.6627C27.0984 25.9745 26.0878 26.9851 24.7694 27.5138C22.795 28.2968 18.1102 28.1161 15.9283 28.1161C13.7465 28.1161 9.05494 28.2902 7.08729 27.5138C5.77552 26.9918 4.76492 25.9812 4.2362 24.6627C3.45315 22.6884 3.63386 18.0035 3.63386 15.8217C3.63386 13.6398 3.45985 8.94827 4.2362 6.98062C4.75823 5.66885 5.76882 4.65825 7.08729 4.12953C9.06163 3.34648 13.7465 3.52719 15.9283 3.52719C18.1102 3.52719 22.8017 3.35318 24.7694 4.12953C26.0812 4.65156 27.0917 5.66216 27.6205 6.98062C28.4035 8.95496 28.2228 13.6398 28.2228 15.8217C28.2228 18.0035 28.4035 22.6951 27.6205 24.6627Z" fill="currentColor"/>
</g>

<g id="fa-linkedin">
    <!--! Font Awesome Free 6.3.0 by @fontawesome - https://fontawesome.com License - https://fontawesome.com/license/free (Icons: CC BY 4.0, Fonts: SIL OFL 1.1, Code: MIT License) Copyright 2023 Fonticons, Inc. -->
    <path d="M27.8571 0H2.13616C0.957589 0 0 0.970982 0 2.16295V27.8371C0 29.029 0.957589 30 2.13616 30H27.8571C29.0357 30 30 29.029 30 27.8371V2.16295C30 0.970982 29.0357 0 27.8571 0ZM9.06696 25.7143H4.62054V11.3973H9.07366V25.7143H9.06696ZM6.84375 9.44196C5.41741 9.44196 4.26562 8.28348 4.26562 6.86384C4.26562 5.4442 5.41741 4.28571 6.84375 4.28571C8.26339 4.28571 9.42187 5.4442 9.42187 6.86384C9.42187 8.29018 8.27009 9.44196 6.84375 9.44196ZM25.7344 25.7143H21.2879V18.75C21.2879 17.0893 21.2545 14.9531 18.9777 14.9531C16.6607 14.9531 16.3058 16.7612 16.3058 18.6295V25.7143H11.8594V11.3973H16.125V13.3527H16.1853C16.7812 12.2277 18.2344 11.0424 20.3973 11.0424C24.8973 11.0424 25.7344 14.0089 25.7344 17.8661V25.7143Z" fill="currentColor"/>
</g>

<g id="fa-mastodon">
    <!--! Font Awesome Free 6.3.0 by @fontawesome - https://fontawesome.com License - https://fontawesome.com/license/free (Icons: CC BY 4.0, Fonts: SIL OFL 1.1, Code: MIT License) Copyright 2023 Fonticons, Inc. -->
    <path d="M27.0695 10.5188C27.0695 4.22781 22.9461 2.38324 22.9461 2.38324C18.8997 0.525725 8.15328 0.545142 4.14571 2.38324C4.14571 2.38324 0.0216376 4.22781 0.0216376 10.5188C0.0216376 18.0071 -0.405526 27.3076 6.8582 29.2298C9.48008 29.9224 11.733 30.0712 13.5459 29.9677C16.8344 29.7864 18.6796 28.7962 18.6796 28.7962L18.5696 26.408C18.5696 26.408 16.2196 27.1458 13.5783 27.0617C10.9629 26.971 8.20635 26.7769 7.77725 23.5667C7.73746 23.2685 7.718 22.9679 7.719 22.667C13.2611 24.0197 17.9871 23.256 19.288 23.1007C22.9202 22.667 26.0838 20.4277 26.487 18.3825C27.1213 15.1593 27.0695 10.5188 27.0695 10.5188ZM22.2076 18.6219H19.1896V11.2307C19.1896 8.01404 15.0474 7.89106 15.0474 11.6773V15.7224H12.0489V11.6766C12.0489 7.89042 7.90669 8.01339 7.90669 11.2301V18.6213H4.88224C4.88224 10.7188 4.54569 9.04894 6.07377 7.29498C7.75006 5.42452 11.2399 5.30155 12.7938 7.68978L13.5446 8.95185L14.2954 7.68978C15.8558 5.2886 19.3514 5.43746 21.0154 7.29498C22.55 9.06188 22.2063 10.7252 22.2063 18.6213L22.2076 18.6219Z" fill="currentColor"/>
</g>

</svg>
