<svg xmlns="http://www.w3.org/2000/svg" viewBox="0 0 30 30"><path d="M25.644 4.35C22.74 1.45 19.187 0 14.98 0 10.826 0 7.31 1.45 4.431 4.35 1.477 7.35 0 10.9 0 15c0 4.1 1.477 7.626 4.431 10.576C7.384 28.526 10.901 30 14.981 30c4.13 0 7.71-1.487 10.738-4.462C28.573 22.713 30 19.2 30 15s-1.452-7.75-4.356-10.65zm-1.878 19.237c-2.478 2.45-5.394 3.675-8.747 3.675-3.355 0-6.246-1.213-8.674-3.638C3.917 21.2 2.704 18.324 2.704 15c0-1.279.183-2.493.545-3.646l7.68 3.42h-1.69v2.335h3.514l.343.713v1.131H9.24v2.335h3.857v3.39h3.733v-3.39h3.882V19.13l4.897 2.18a11.655 11.655 0 01-1.842 2.277zm-3.452-4.634H16.83v-1.131l.176-.341 3.308 1.472zm.397-3.105v-1.074h-2.334l3.809-7.017h-3.98l-2.623 5.807-1.392-.62-2.397-5.187h-3.98l1.652 3.084-4.953-2.206A13.74 13.74 0 016.383 6.3c2.353-2.4 5.23-3.6 8.636-3.6 3.403 0 6.295 1.2 8.673 3.6 2.402 2.375 3.603 5.274 3.603 8.7 0 1.269-.16 2.457-.478 3.566l-6.106-2.718z" fill="currentColor"/></svg>
