<svg viewBox="0 0 30 30" xmlns="http://www.w3.org/2000/svg"><path d="M14.973 0c4.196 0 7.75 1.455 10.66 4.366C28.544 7.26 30 10.804 30 15c0 4.197-1.43 7.714-4.287 10.553C22.696 28.518 19.115 30 14.973 30c-4.054 0-7.571-1.473-10.553-4.42C1.474 22.634 0 19.108 0 15c0-4.088 1.474-7.633 4.42-10.633C7.33 1.455 10.848 0 14.973 0zm.054 2.706c-3.41 0-6.295 1.205-8.652 3.616-2.447 2.483-3.67 5.375-3.67 8.678 0 3.34 1.214 6.214 3.642 8.625 2.429 2.43 5.322 3.643 8.679 3.643 3.339 0 6.25-1.223 8.732-3.67 2.358-2.285 3.536-5.151 3.536-8.598 0-3.428-1.197-6.321-3.589-8.678-2.375-2.412-5.268-3.616-8.678-3.616zm6.107 8.008c.232 0 .428.08.589.24.161.162.242.358.242.59V22.58c0 .232-.08.428-.242.588a.801.801 0 01-.589.242h-8.17a.8.8 0 01-.59-.242.798.798 0 01-.24-.588V19.31H8.866a.8.8 0 01-.59-.24.802.802 0 01-.24-.59V7.447c0-.215.07-.398.214-.55a.924.924 0 01.535-.28h8.25c.231 0 .428.08.59.24.16.16.24.358.24.59v3.268h3.27zM9.67 17.678h2.465v-6.134c0-.214.07-.397.214-.549a.914.914 0 01.509-.28h3.375V8.276H9.669v9.401zm10.661-5.33h-6.562v9.402h6.562v-9.402z" fill="currentColor"/></svg>
