<svg viewBox="0 0 30 30" xmlns="http://www.w3.org/2000/svg"><path fill-rule="evenodd" clip-rule="evenodd" d="M15 3.638C10.832.33 4.3 1.193 1.297 6.165.299 7.816-.075 9.735.013 11.641c.152 3.306 1.563 6.195 3.635 8.689 2.79 3.357 6.825 5.995 11.264 7.964l.008.004.08.035c.027-.011.074-.033.089-.04 4.417-1.968 8.473-4.607 11.263-7.963 2.072-2.494 3.483-5.383 3.636-8.689.088-1.905-.287-3.825-1.284-5.476C25.7 1.193 19.168.33 15 3.638zm-2.018 10.58l1.897.952c-.35.832-1.226 1.603-2.014 2.003-1.019.516-2.216.573-3.316.33-2.255-.5-3.305-2.41-3.345-4.623-.038-2.164 1.055-4.17 3.212-4.754 2.027-.55 4.418.12 5.438 2.09l-2.071 1.074c-.238-.56-.682-1.182-1.725-1.236-1.631-.085-2.11 1.51-2.053 2.892.042 1.012.364 2.218 1.452 2.52 1.386.383 1.865-.275 2.525-1.247zm8.944 0l1.897.952c-.35.832-1.226 1.603-2.014 2.003-1.019.516-2.216.573-3.316.33-2.255-.5-3.305-2.41-3.345-4.623-.038-2.164 1.055-4.17 3.212-4.754 2.027-.55 4.418.12 5.438 2.09l-2.071 1.074c-.238-.56-.682-1.182-1.725-1.236-1.631-.085-2.11 1.51-2.053 2.892.042 1.012.364 2.218 1.452 2.52 1.386.383 1.866-.275 2.525-1.247z" fill="currentColor"/></svg>
