<svg width="30" height="30" viewBox="0 0 30 30" fill="none" xmlns="http://www.w3.org/2000/svg">
<path d="M15.1336 28.5173C22.5988 28.5173 28.6505 22.4656 28.6505 15.0005C28.6505 7.53529 22.5988 1.48358 15.1336 1.48358C7.66843 1.48358 1.61671 7.53529 1.61671 15.0005C1.61671 22.4656 7.66843 28.5173 15.1336 28.5173Z" fill="black"/>
<path d="M14.9723 0C19.1681 0 22.7405 1.46484 25.6866 4.39313C27.0966 5.80359 28.1686 7.41563 28.9008 9.22781C29.6325 11.0405 29.9995 12.9642 29.9995 15C29.9995 17.0536 29.6372 18.9778 28.9148 20.7717C28.1916 22.5661 27.1242 24.1514 25.7142 25.5263C24.2503 26.9723 22.5895 28.08 20.7319 28.8478C18.8752 29.6156 16.9552 29.9995 14.9733 29.9995C12.9914 29.9995 11.0939 29.6208 9.28125 28.8609C7.46906 28.1025 5.84391 27.0042 4.40625 25.567C2.96859 24.1298 1.875 22.5089 1.125 20.7052C0.375 18.9014 0 17.0002 0 15C0 13.0177 0.379219 11.1117 1.13812 9.28125C1.89703 7.45078 3 5.8125 4.44609 4.36594C7.30312 1.45594 10.8117 0 14.9723 0ZM15.0267 2.70563C11.5983 2.70563 8.71406 3.90234 6.37453 6.29484C5.19563 7.49156 4.28953 8.835 3.65578 10.3261C3.02109 11.8172 2.70469 13.3753 2.70469 15.0005C2.70469 16.6078 3.02109 18.157 3.65578 19.6472C4.29 21.1392 5.19563 22.4695 6.37453 23.6391C7.55297 24.8091 8.88281 25.7011 10.3659 26.318C11.8477 26.9339 13.4016 27.2419 15.0267 27.2419C16.6336 27.2419 18.1908 26.9302 19.7016 26.3048C21.2105 25.6791 22.5708 24.7781 23.7858 23.5997C26.1248 21.3141 27.2939 18.4481 27.2939 15.0009C27.2939 13.3402 26.9902 11.7689 26.3831 10.2867C25.777 8.80453 24.8925 7.48359 23.7328 6.32203C21.3206 3.91125 18.4195 2.70563 15.0267 2.70563ZM14.8387 12.5095L12.8292 13.5544C12.6145 13.1086 12.3516 12.7955 12.0394 12.6169C11.7267 12.4388 11.4366 12.3492 11.1684 12.3492C9.82969 12.3492 9.15938 13.2328 9.15938 15.0009C9.15938 15.8044 9.32906 16.4466 9.66797 16.9289C10.0073 17.4113 10.5075 17.6527 11.1684 17.6527C12.0436 17.6527 12.6595 17.2238 13.0172 16.3669L14.865 17.3044C14.4722 18.037 13.9275 18.6127 13.2309 19.0322C12.5353 19.4522 11.767 19.6617 10.9275 19.6617C9.58828 19.6617 8.50734 19.2516 7.68609 18.4294C6.86484 17.6081 6.45422 16.4653 6.45422 15.0014C6.45422 13.5727 6.86953 12.4392 7.69969 11.5997C8.52984 10.7606 9.57891 10.3406 10.8473 10.3406C12.705 10.3397 14.0348 11.063 14.8387 12.5095ZM23.4905 12.5095L21.5081 13.5544C21.2939 13.1086 21.03 12.7955 20.7178 12.6169C20.4047 12.4388 20.1052 12.3492 19.8206 12.3492C18.4814 12.3492 17.8111 13.2328 17.8111 15.0009C17.8111 15.8044 17.9813 16.4466 18.3202 16.9289C18.6591 17.4113 19.1588 17.6527 19.8206 17.6527C20.6948 17.6527 21.3112 17.2238 21.668 16.3669L23.543 17.3044C23.1328 18.037 22.5787 18.6127 21.8831 19.0322C21.1866 19.4522 20.4277 19.6617 19.6064 19.6617C18.2489 19.6617 17.1647 19.2516 16.3528 18.4294C15.5391 17.6081 15.1331 16.4653 15.1331 15.0014C15.1331 13.5727 15.548 12.4392 16.3791 11.5997C17.2087 10.7606 18.2578 10.3406 19.5258 10.3406C21.383 10.3397 22.7053 11.063 23.4905 12.5095Z" fill="white"/>
</svg>
