<?xml version="1.0" encoding="UTF-8" standalone="no"?>
<!-- Created with Inkscape (http://www.inkscape.org/) -->

<svg
   xmlns:dc="http://purl.org/dc/elements/1.1/"
   xmlns:cc="http://creativecommons.org/ns#"
   xmlns:rdf="http://www.w3.org/1999/02/22-rdf-syntax-ns#"
   xmlns:svg="http://www.w3.org/2000/svg"
   xmlns="http://www.w3.org/2000/svg"
   xmlns:sodipodi="http://sodipodi.sourceforge.net/DTD/sodipodi-0.dtd"
   xmlns:inkscape="http://www.inkscape.org/namespaces/inkscape"
   id="svg2"
   version="1.1"
   inkscape:version="0.91 r13725"
   xml:space="preserve"
   width="276.92499"
   height="243.35001"
   viewBox="0 0 276.92499 243.35001"
   sodipodi:docname="cc-heart_k.svg"><metadata
     id="metadata8"><rdf:RDF><cc:Work
         rdf:about=""><dc:format>image/svg+xml</dc:format><dc:type
           rdf:resource="http://purl.org/dc/dcmitype/StillImage" /><dc:title></dc:title></cc:Work></rdf:RDF></metadata><defs
     id="defs6" /><sodipodi:namedview
     pagecolor="#ffffff"
     bordercolor="#666666"
     borderopacity="1"
     objecttolerance="10"
     gridtolerance="10"
     guidetolerance="10"
     inkscape:pageopacity="0"
     inkscape:pageshadow="2"
     inkscape:window-width="640"
     inkscape:window-height="480"
     id="namedview4"
     showgrid="false"
     inkscape:zoom="0.96979656"
     inkscape:cx="138.46249"
     inkscape:cy="121.675"
     inkscape:window-x="740"
     inkscape:window-y="395"
     inkscape:window-maximized="0"
     inkscape:current-layer="g12" /><g
     id="g10"
     inkscape:groupmode="layer"
     inkscape:label="ink_ext_XXXXXX"
     transform="matrix(1.25,0,0,-1.25,0,243.35)"><g
       id="g12"
       transform="scale(0.1,0.1)"><path
         d="m 1530.78,1866.81 c -165.06,-0.12 -314.66,-66.77 -423.5,-174.38 -109.135,107.24 -258.862,173.51 -424.077,173.3 C 349.695,1865.38 79.6992,1594.54 80,1261.02 80.957,494.691 1109.19,86.1289 1109.19,86.1289 c 0,0 1027.36,411.0431 1026.25,1177.5711 -0.41,333.52 -271.06,603.48 -604.66,603.11 z"
         style="fill:none;stroke:#ffffff;stroke-width:160;stroke-linecap:butt;stroke-linejoin:miter;stroke-miterlimit:10;stroke-dasharray:none;stroke-opacity:1"
         id="path14"
         inkscape:connector-curvature="0" /><path
         d="m 1758.63,1272.29 -150.73,-79.16 c -16.32,33.83 -36.37,57.49 -60.11,71.01 -23.79,13.52 -46.56,20.32 -68.26,20.32 -101.84,0 -152.79,-66.97 -152.79,-200.91 0,-60.87 12.9,-109.593 38.73,-146.12 25.77,-36.532 63.81,-54.789 114.06,-54.789 66.54,0 113.41,32.461 140.57,97.422 l 142.61,-71.024 c -31.25,-55.519 -73.34,-99.129 -126.31,-130.891 -52.95,-31.816 -110.72,-47.707 -173.16,-47.707 -103.23,0 -185.75,31.129 -247.53,93.36 -61.85,62.25 -92.72,148.789 -92.72,259.749 0,108.23 31.58,194.11 94.75,257.72 63.16,63.58 142.94,95.38 239.38,95.38 141.24,0 241.75,-54.82 301.51,-164.36 z m -658.02,0 -152.817,-79.16 c -16.277,33.83 -36.355,57.49 -60.066,71.01 -23.782,13.52 -45.84,20.32 -66.235,20.32 -101.883,0 -152.793,-66.97 -152.793,-200.91 0,-60.87 12.895,-109.593 38.703,-146.12 25.762,-36.532 63.828,-54.789 114.09,-54.789 66.528,0 113.379,32.461 140.578,97.422 l 140.56,-71.024 C 1072.76,853.52 1031.34,809.91 978.359,778.148 925.383,746.332 867.004,730.441 803.125,730.441 c -101.836,0 -184.031,31.129 -246.465,93.36 -62.5,62.25 -93.73,148.789 -93.73,259.749 0,108.23 31.582,194.11 94.738,257.72 63.133,63.58 142.906,95.38 239.363,95.38 141.27,0 242.449,-54.82 303.579,-164.36"
         style="fill:#ffffff;fill-opacity:1;fill-rule:nonzero;stroke:none"
         id="path16"
         inkscape:connector-curvature="0" /></g></g></svg>